<?xml version="1.0" encoding="utf-8"?>
<svg viewBox="-41.507 -7.662 336.964 99.468" xmlns="http://www.w3.org/2000/svg">
  <defs>
    <clipPath id="clip0">
      <rect width="336" height="96" fill="white" transform="translate(432 267)"/>
    </clipPath>
  </defs>
  <g clip-path="url(#clip0)" transform="matrix(0.9999999999999999, 0, 0, 0.9999999999999999, -468.9223937988281, -275.4906311035156)">
    <path fill-rule="evenodd" clip-rule="evenodd" d="M434.221 293.647C432.846 294.446 432 295.917 432 297.507V332.695C432 334.285 432.846 335.756 434.221 336.555L480 363.171V363.031L525.779 336.415C527.154 335.616 528 334.146 528 332.555V298.819C528 297.097 526.134 296.023 524.645 296.889L482.221 321.554C480.846 322.353 480 323.824 480 325.414V331.915L435.72 306.171L480 280.427V270.912C480 269.19 478.134 268.116 476.645 268.982L434.221 293.647ZM494.23 325.871C493.886 326.071 493.674 326.439 493.674 326.836V329.689C493.674 330.119 494.141 330.388 494.513 330.172L517.119 317.028C517.463 316.829 517.674 316.461 517.674 316.063V313.211C517.674 312.78 517.208 312.512 516.836 312.728L494.23 325.871Z" style="fill: rgb(51, 91, 241);"/>
    <path d="M464 316.112C464 314.521 464.846 313.051 466.221 312.252L508.645 287.586C510.134 286.721 512 287.795 512 289.516V299.031L464 326.938V316.112Z" style="fill: rgb(51, 91, 241);"/>
    <path d="M448 306.809C448 305.219 448.846 303.749 450.221 302.949L492.645 278.284C494.134 277.419 496 278.492 496 280.214V289.729L448 317.636V306.809Z" style="fill: rgb(51, 91, 241);"/>
    <path d="M575.154 348.49C571.248 348.49 567.5 347.859 563.909 346.598C560.381 345.273 557.263 343.318 554.554 340.733C551.908 338.084 549.798 334.804 548.223 330.894C546.648 326.921 545.86 322.317 545.86 317.083C545.86 311.911 546.679 307.339 548.317 303.366C549.955 299.329 552.129 295.955 554.837 293.243C557.609 290.469 560.759 288.356 564.287 286.905C567.878 285.455 571.626 284.729 575.532 284.729C579.627 284.729 583.28 285.549 586.493 287.189C589.706 288.766 592.415 290.658 594.62 292.865L586.115 303.271C584.603 301.947 583.028 300.875 581.39 300.055C579.816 299.172 577.989 298.73 575.91 298.73C574.083 298.73 572.35 299.14 570.713 299.96C569.138 300.78 567.72 301.947 566.46 303.46C565.263 304.974 564.287 306.834 563.531 309.042C562.838 311.249 562.492 313.74 562.492 316.515C562.492 322.317 563.688 326.763 566.082 329.854C568.539 332.944 571.752 334.489 575.721 334.489C578.115 334.489 580.225 333.985 582.052 332.975C583.942 331.903 585.548 330.642 586.871 329.191L595.376 339.408C592.73 342.435 589.674 344.706 586.21 346.219C582.808 347.733 579.123 348.49 575.154 348.49Z" style="fill: rgb(51, 91, 241);"/>
    <path d="M615.214 348.49C612.442 348.49 610.111 348.08 608.221 347.26C606.394 346.377 604.914 345.147 603.78 343.571C602.646 341.994 601.827 340.134 601.323 337.989C600.882 335.782 600.661 333.354 600.661 330.705V281.513H616.915V331.273C616.915 332.912 617.198 334.016 617.765 334.584C618.395 335.151 618.993 335.435 619.56 335.435C619.875 335.435 620.127 335.435 620.316 335.435C620.568 335.435 620.883 335.372 621.261 335.246L623.151 347.165C622.269 347.544 621.167 347.859 619.844 348.111C618.584 348.364 617.04 348.49 615.214 348.49Z" style="fill: rgb(51, 91, 241);"/>
    <path d="M648.84 348.49C645.375 348.49 642.162 347.954 639.201 346.882C636.24 345.746 633.658 344.138 631.453 342.057C629.311 339.913 627.61 337.296 626.35 334.205C625.09 331.115 624.46 327.615 624.46 323.705C624.46 319.858 625.09 316.42 626.35 313.393C627.673 310.303 629.374 307.686 631.453 305.542C633.595 303.397 636.02 301.758 638.729 300.622C641.438 299.487 644.241 298.92 647.139 298.92C650.604 298.92 653.627 299.519 656.21 300.717C658.793 301.915 660.935 303.555 662.636 305.636C664.337 307.717 665.597 310.145 666.416 312.92C667.298 315.695 667.739 318.659 667.739 321.813C667.739 323.263 667.644 324.619 667.455 325.88C667.329 327.142 667.203 328.056 667.077 328.624H640.146C640.902 331.462 642.257 333.448 644.209 334.584C646.162 335.656 648.462 336.192 651.108 336.192C652.745 336.192 654.32 335.971 655.832 335.53C657.407 335.025 659.045 334.3 660.746 333.354L666.038 343.003C663.455 344.832 660.588 346.219 657.439 347.165C654.352 348.048 651.486 348.49 648.84 348.49ZM639.957 318.029H653.942C653.942 316.2 653.47 314.623 652.525 313.299C651.643 311.911 649.974 311.218 647.517 311.218C645.69 311.218 644.083 311.754 642.698 312.826C641.375 313.898 640.461 315.632 639.957 318.029Z" style="fill: rgb(51, 91, 241);"/>
    <path d="M688.161 347.355C680.763 347.355 674.766 341.357 674.766 333.959V300.055H684.109C686.337 300.055 688.224 301.697 688.532 303.903L689.129 308.19H689.507C691.271 304.974 693.35 302.64 695.744 301.19C698.201 299.676 700.594 298.92 702.925 298.92C704.374 298.92 705.54 299.014 706.422 299.203C707.303 299.329 708.091 299.55 708.784 299.866L706.138 313.866C705.256 313.677 704.406 313.519 703.587 313.393C702.831 313.204 701.917 313.11 700.846 313.11C699.145 313.11 697.35 313.709 695.46 314.907C693.633 316.042 692.153 318.092 691.019 321.056V347.355H688.161Z" style="fill: rgb(51, 91, 241);"/>
    <path d="M725.767 347.355C718.369 347.355 712.372 341.357 712.372 333.959V281.513H728.247V316.515H728.625L737.643 305.132C740.184 301.925 744.051 300.055 748.143 300.055H759.241L742.421 319.731L760.186 347.355H750.453C745.609 347.355 741.142 344.739 738.772 340.515L733.161 330.516L728.247 336.003V347.355H725.767Z" style="fill: rgb(51, 91, 241);"/>
    <path fill-rule="evenodd" clip-rule="evenodd" d="M434.221 293.647C432.846 294.446 432 295.917 432 297.507V332.695C432 334.285 432.846 335.756 434.221 336.555L480 363.171V363.031L525.779 336.415C527.154 335.616 528 334.146 528 332.555V298.819C528 297.097 526.134 296.023 524.645 296.889L482.221 321.554C480.846 322.353 480 323.824 480 325.414V331.915L435.72 306.171L480 280.427V270.912C480 269.19 478.134 268.116 476.645 268.982L434.221 293.647ZM494.23 325.871C493.886 326.071 493.674 326.439 493.674 326.836V329.689C493.674 330.119 494.141 330.388 494.513 330.172L517.119 317.028C517.463 316.829 517.674 316.461 517.674 316.063V313.211C517.674 312.78 517.208 312.512 516.836 312.728L494.23 325.871Z" style="fill: rgb(51, 91, 241);"/>
    <path d="M464 316.112C464 314.521 464.846 313.051 466.221 312.252L508.645 287.586C510.134 286.721 512 287.795 512 289.516V299.031L464 326.938V316.112Z" style="fill: rgb(51, 91, 241);"/>
    <path d="M448 306.809C448 305.219 448.846 303.749 450.221 302.949L492.645 278.284C494.134 277.419 496 278.492 496 280.214V289.729L448 317.636V306.809Z" style="fill: rgb(51, 91, 241);"/>
    <path d="M575.154 348.49C571.248 348.49 567.5 347.859 563.909 346.598C560.381 345.273 557.263 343.318 554.554 340.733C551.908 338.084 549.798 334.804 548.223 330.894C546.648 326.921 545.86 322.317 545.86 317.083C545.86 311.911 546.679 307.339 548.317 303.366C549.955 299.329 552.129 295.955 554.837 293.243C557.609 290.469 560.759 288.356 564.287 286.905C567.878 285.455 571.626 284.729 575.532 284.729C579.627 284.729 583.28 285.549 586.493 287.189C589.706 288.766 592.415 290.658 594.62 292.865L586.115 303.271C584.603 301.947 583.028 300.875 581.39 300.055C579.816 299.172 577.989 298.73 575.91 298.73C574.083 298.73 572.35 299.14 570.713 299.96C569.138 300.78 567.72 301.947 566.46 303.46C565.263 304.974 564.287 306.834 563.531 309.042C562.838 311.249 562.492 313.74 562.492 316.515C562.492 322.317 563.688 326.763 566.082 329.854C568.539 332.944 571.752 334.489 575.721 334.489C578.115 334.489 580.225 333.985 582.052 332.975C583.942 331.903 585.548 330.642 586.871 329.191L595.376 339.408C592.73 342.435 589.674 344.706 586.21 346.219C582.808 347.733 579.123 348.49 575.154 348.49Z" style="fill: rgb(51, 91, 241);"/>
    <path d="M615.214 348.49C612.442 348.49 610.111 348.08 608.221 347.26C606.394 346.377 604.914 345.147 603.78 343.571C602.646 341.994 601.827 340.134 601.323 337.989C600.882 335.782 600.661 333.354 600.661 330.705V281.513H616.915V331.273C616.915 332.912 617.198 334.016 617.765 334.584C618.395 335.151 618.993 335.435 619.56 335.435C619.875 335.435 620.127 335.435 620.316 335.435C620.568 335.435 620.883 335.372 621.261 335.246L623.151 347.165C622.269 347.544 621.167 347.859 619.844 348.111C618.584 348.364 617.04 348.49 615.214 348.49Z" style="fill: rgb(51, 91, 241);"/>
    <path d="M648.84 348.49C645.375 348.49 642.162 347.954 639.201 346.882C636.24 345.746 633.658 344.138 631.453 342.057C629.311 339.913 627.61 337.296 626.35 334.205C625.09 331.115 624.46 327.615 624.46 323.705C624.46 319.858 625.09 316.42 626.35 313.393C627.673 310.303 629.374 307.686 631.453 305.542C633.595 303.397 636.02 301.758 638.729 300.622C641.438 299.487 644.241 298.92 647.139 298.92C650.604 298.92 653.627 299.519 656.21 300.717C658.793 301.915 660.935 303.555 662.636 305.636C664.337 307.717 665.597 310.145 666.416 312.92C667.298 315.695 667.739 318.659 667.739 321.813C667.739 323.263 667.644 324.619 667.455 325.88C667.329 327.142 667.203 328.056 667.077 328.624H640.146C640.902 331.462 642.257 333.448 644.209 334.584C646.162 335.656 648.462 336.192 651.108 336.192C652.745 336.192 654.32 335.971 655.832 335.53C657.407 335.025 659.045 334.3 660.746 333.354L666.038 343.003C663.455 344.832 660.588 346.219 657.439 347.165C654.352 348.048 651.486 348.49 648.84 348.49ZM639.957 318.029H653.942C653.942 316.2 653.47 314.623 652.525 313.299C651.643 311.911 649.974 311.218 647.517 311.218C645.69 311.218 644.083 311.754 642.698 312.826C641.375 313.898 640.461 315.632 639.957 318.029Z" style="fill: rgb(51, 91, 241);"/>
    <path d="M688.161 347.355C680.763 347.355 674.766 341.357 674.766 333.959V300.055H684.109C686.337 300.055 688.224 301.697 688.532 303.903L689.129 308.19H689.507C691.271 304.974 693.35 302.64 695.744 301.19C698.201 299.676 700.594 298.92 702.925 298.92C704.374 298.92 705.54 299.014 706.422 299.203C707.303 299.329 708.091 299.55 708.784 299.866L706.138 313.866C705.256 313.677 704.406 313.519 703.587 313.393C702.831 313.204 701.917 313.11 700.846 313.11C699.145 313.11 697.35 313.709 695.46 314.907C693.633 316.042 692.153 318.092 691.019 321.056V347.355H688.161Z" style="fill: rgb(51, 91, 241);"/>
    <path d="M725.767 347.355C718.369 347.355 712.372 341.357 712.372 333.959V281.513H728.247V316.515H728.625L737.643 305.132C740.184 301.925 744.051 300.055 748.143 300.055H759.241L742.421 319.731L760.186 347.355H750.453C745.609 347.355 741.142 344.739 738.772 340.515L733.161 330.516L728.247 336.003V347.355H725.767Z" style="fill: rgb(51, 91, 241);"/>
  </g>
</svg>